# xmcd
#
# Track frame offsets:
#  150
#  9563
#  23073
#  32982
#  47438
#  59275
#  71144
#  80117
#  88475
#  98679
#  107756
#  118912
#  130784
#  142614
#
# Disc length: 2263 seconds
#
# Revision: 0
# Processed by: cddbd v1.5.1PL2 Copyright (c) Steve Scherf et al.
# Submitted via: AltoMP3_Maker 3.0
#
DISCID=bc08d50e
DTITLE=Don Allen - Doing What I Do With Just My Old Guitar
DYEAR=1900
DGENRE=
TTITLE0=Northwest Arkansas
TTITLE1=Nobody Home On The Range Anymore
TTITLE2=Does Ft. Worth Ever Cross Your Mind
TTITLE3=Tear Drops Falling in The Snow
TTITLE4=I Just Don't Look Good Naked Anymore
TTITLE5=Hardtimes
TTITLE6=Grandpa
TTITLE7=Jesus - He Came A Long Way
TTITLE8=Sometime In The Night
TTITLE9=I Thought I heard You Calling My Name
TTITLE10=Jake Satterfield
TTITLE11=The Little Dipper
TTITLE12=Old Flames
TTITLE13=The Baptizing
EXTD=
EXTT0=
EXTT1=
EXTT2=
EXTT3=
EXTT4=
EXTT5=
EXTT6=
EXTT7=
EXTT8=
EXTT9=
EXTT10=
EXTT11=
EXTT12=
EXTT13=
PLAYORDER=
